<svg id="Layer_1" data-name="Layer 1" xmlns="http://www.w3.org/2000/svg" viewBox="0 0 100 100"><defs><style>.cls-1{fill:#00f7ea;}</style></defs><title>Drop_00</title><path class="cls-1" d="M52.45,4.77a3.48,3.48,0,0,0-2.46-1h0a3.46,3.46,0,0,0-2.45,1L23.86,29.9h0a40.3,40.3,0,0,0,0,54.72A35.18,35.18,0,0,0,50,96.24h0A35.67,35.67,0,0,0,76.13,84.73c14.29-15.07,14.29-39.64,0-54.83ZM51,82.28a23.9,23.9,0,0,1-23.79-23.9A3.45,3.45,0,0,1,30.56,55a3.35,3.35,0,0,1,3.35,3.35A17.21,17.21,0,0,0,51,75.58a3.23,3.23,0,0,1,3.35,3.12v.23A3.35,3.35,0,0,1,51,82.28Z"/></svg>