<svg id="Layer_1" data-name="Layer 1" xmlns="http://www.w3.org/2000/svg" viewBox="0 0 26 26"><defs><style>.cls-1{fill:#00f7ea;}.cls-2{fill:#1c0ee8;}</style></defs><title>Drop_03</title><path class="cls-1" d="M13.63,1.26A.9.9,0,0,0,13,1h0a.9.9,0,0,0-.64.26L6.21,7.78h0A10.46,10.46,0,0,0,6.21,22,9.13,9.13,0,0,0,13,25h0a9.24,9.24,0,0,0,6.78-3,10.49,10.49,0,0,0,0-14.23Z"/><path class="cls-2" d="M13,25.5a9.64,9.64,0,0,1-7.15-3.18,11,11,0,0,1,0-14.88L12,.92A1.42,1.42,0,0,1,13,.5h0a1.34,1.34,0,0,1,1,.41h0l6.15,6.52a11,11,0,0,1,0,14.92A9.79,9.79,0,0,1,13,25.5Zm0-24a.36.36,0,0,0-.28.12L6.57,8.13a10,10,0,0,0,0,13.52A8.64,8.64,0,0,0,13,24.5h0a8.84,8.84,0,0,0,6.42-2.82,10,10,0,0,0,0-13.55L13.27,1.61A.39.39,0,0,0,13,1.5Z"/></svg>